<svg width="1200" height="280" viewBox="0 0 1200 280" fill="none" xmlns="http://www.w3.org/2000/svg">
  <rect width="1200" height="280" rx="20" fill="#020617"/>
  <path d="M0 198C120 173 200 132 300 138C420 145 474 216 584 218C690 220 760 148 870 147C986 147 1037 208 1200 198V280H0V198Z" fill="url(#paint0_linear)"/>
  <path d="M0 164C132 138 205 106 306 112C438 120 468 192 584 194C705 197 764 118 874 116C998 114 1072 190 1200 164" stroke="#22D3EE" stroke-width="5"/>
  <path d="M0 184C132 157 205 126 306 133C438 141 468 210 584 211C705 213 764 136 874 136C998 136 1072 208 1200 184" stroke="#A855F7" stroke-opacity="0.7" stroke-width="3"/>
  <defs>
    <linearGradient id="paint0_linear" x1="600" y1="116" x2="600" y2="280" gradientUnits="userSpaceOnUse">
      <stop stop-color="#0EA5E9" stop-opacity="0.35"/>
      <stop offset="1" stop-color="#0EA5E9" stop-opacity="0"/>
    </linearGradient>
  </defs>
</svg>
